<svg xmlns="http://www.w3.org/2000/svg" viewBox="0 0 24 24" width="24" height="24"><path cx="11" cy="11" r="10" fill="none" stroke="#e88ca6" stroke-width="1.5" d="M21 11A10 10 0 0 1 11 21 10 10 0 0 1 1 11a10 10 0 0 1 20 0z"/><path fill="none" stroke="#e88ca6" strokeWidth="1.25" strokeMiterlimit="10" d="M8 15V7l8 -1.5V13.5m-8 -4.5 8 -1.5"/><path fill="none" stroke="#e88ca6" strokeWidth="1.25" strokeMiterlimit="10" d="M16 13a1.5 1.5 0 1 1 -3 0 1.5 1.5 0 0 1 3 0zM8 15a1.5 1.5 0 1 1 -3 0 1.5 1.5 0 0 1 3 0z"/></svg>